<?xml version="1.0" encoding="UTF-8"?>
<svg width="512" height="512" viewBox="0 0 512 512" xmlns="http://www.w3.org/2000/svg">
  <defs>
    <linearGradient id="bgGradient" x1="0%" y1="0%" x2="100%" y2="100%">
      <stop offset="0%" style="stop-color:#2a2a2a;stop-opacity:1" />
      <stop offset="100%" style="stop-color:#1a1a1a;stop-opacity:1" />
    </linearGradient>
    <linearGradient id="greenGradient" x1="0%" y1="0%" x2="100%" y2="100%">
      <stop offset="0%" style="stop-color:#4CAF50;stop-opacity:1" />
      <stop offset="100%" style="stop-color:#45a049;stop-opacity:1" />
    </linearGradient>
  </defs>
  
  <!-- Background -->
  <rect width="512" height="512" fill="url(#bgGradient)" rx="80"/>
  
  <!-- Outer ring -->
  <circle cx="256" cy="256" r="200" fill="none" stroke="url(#greenGradient)" stroke-width="8"/>
  
  <!-- Inner circle -->
  <circle cx="256" cy="256" r="180" fill="#333"/>
  
  <!-- Mixer faders -->
  <g id="faders">
    <!-- Fader 1 -->
    <g transform="translate(150, 0)">
      <line x1="0" y1="180" x2="0" y2="330" stroke="#555" stroke-width="8" stroke-linecap="round"/>
      <rect x="-15" y="200" width="30" height="20" fill="url(#greenGradient)" rx="4"/>
      <circle cx="0" cy="150" r="15" fill="none" stroke="url(#greenGradient)" stroke-width="4"/>
      <line x1="0" y1="150" x2="10" y2="140" stroke="#fff" stroke-width="2" stroke-linecap="round"/>
    </g>
    
    <!-- Fader 2 -->
    <g transform="translate(200, 0)">
      <line x1="0" y1="180" x2="0" y2="330" stroke="#555" stroke-width="8" stroke-linecap="round"/>
      <rect x="-15" y="220" width="30" height="20" fill="url(#greenGradient)" rx="4"/>
      <circle cx="0" cy="150" r="15" fill="none" stroke="url(#greenGradient)" stroke-width="4"/>
      <line x1="0" y1="150" x2="10" y2="140" stroke="#fff" stroke-width="2" stroke-linecap="round"/>
    </g>
    
    <!-- Fader 3 -->
    <g transform="translate(250, 0)">
      <line x1="0" y1="180" x2="0" y2="330" stroke="#555" stroke-width="8" stroke-linecap="round"/>
      <rect x="-15" y="240" width="30" height="20" fill="url(#greenGradient)" rx="4"/>
      <circle cx="0" cy="150" r="15" fill="none" stroke="url(#greenGradient)" stroke-width="4"/>
      <line x1="0" y1="150" x2="10" y2="140" stroke="#fff" stroke-width="2" stroke-linecap="round"/>
    </g>
    
    <!-- Fader 4 -->
    <g transform="translate(300, 0)">
      <line x1="0" y1="180" x2="0" y2="330" stroke="#555" stroke-width="8" stroke-linecap="round"/>
      <rect x="-15" y="260" width="30" height="20" fill="url(#greenGradient)" rx="4"/>
      <circle cx="0" cy="150" r="15" fill="none" stroke="url(#greenGradient)" stroke-width="4"/>
      <line x1="0" y1="150" x2="10" y2="140" stroke="#fff" stroke-width="2" stroke-linecap="round"/>
    </g>
    
    <!-- Fader 5 -->
    <g transform="translate(350, 0)">
      <line x1="0" y1="180" x2="0" y2="330" stroke="#555" stroke-width="8" stroke-linecap="round"/>
      <rect x="-15" y="280" width="30" height="20" fill="url(#greenGradient)" rx="4"/>
      <circle cx="0" cy="150" r="15" fill="none" stroke="url(#greenGradient)" stroke-width="4"/>
      <line x1="0" y1="150" x2="10" y2="140" stroke="#fff" stroke-width="2" stroke-linecap="round"/>
    </g>
  </g>
  
  <!-- Sound waves top -->
  <g fill="none" stroke="url(#greenGradient)" stroke-width="3">
    <path d="M 226 100 A 30 30 0 0 1 286 100"/>
    <path d="M 211 100 A 45 45 0 0 1 301 100"/>
    <path d="M 196 100 A 60 60 0 0 1 316 100"/>
  </g>
  
  <!-- Sound waves bottom -->
  <g fill="none" stroke="url(#greenGradient)" stroke-width="3">
    <path d="M 226 412 A 30 30 0 0 0 286 412"/>
    <path d="M 211 412 A 45 45 0 0 0 301 412"/>
    <path d="M 196 412 A 60 60 0 0 0 316 412"/>
  </g>
  
  <!-- Center musical note -->
  <g transform="translate(256, 256)">
    <!-- Note head -->
    <circle cx="0" cy="0" r="25" fill="url(#greenGradient)"/>
    
    <!-- Note stem -->
    <rect x="19" y="-56" width="4" height="60" fill="#fff"/>
    
    <!-- Note flag -->
    <path d="M 23 -56 Q 44 -66 39 -36 Q 29 -46 23 -41 Z" fill="#fff"/>
    
    <!-- Inner highlight -->
    <circle cx="-8" cy="-8" r="8" fill="#fff" opacity="0.3"/>
  </g>
  
  <!-- Equalizer bars -->
  <g transform="translate(256, 380)">
    <rect x="-40" y="0" width="6" height="20" fill="url(#greenGradient)" opacity="0.8"/>
    <rect x="-28" y="-5" width="6" height="25" fill="url(#greenGradient)" opacity="0.9"/>
    <rect x="-16" y="-10" width="6" height="30" fill="url(#greenGradient)"/>
    <rect x="-4" y="-8" width="6" height="28" fill="url(#greenGradient)" opacity="0.9"/>
    <rect x="8" y="-3" width="6" height="23" fill="url(#greenGradient)" opacity="0.8"/>
    <rect x="20" y="2" width="6" height="18" fill="url(#greenGradient)" opacity="0.7"/>
    <rect x="32" y="5" width="6" height="15" fill="url(#greenGradient)" opacity="0.6"/>
  </g>
</svg>
